<svg enable-background="new 0 0 49.722 100" viewBox="0 0 49.722 125" xmlns="http://www.w3.org/2000/svg"><path d="m1.344 18.592-.242 42.182 3.685-.185 1.104 19.153-2.025 16.943 1.841-.187-1.289 3.502h10.13l.92-.921-2.948-.739-2.761-2.026 2.948-.367 1.47-16.389-1.104-17.312 9.945 15.287 1.477 15.283 2.02-.55-.181 1.839 8.103-.918.368-1.842h-3.315l-1.657-1.288 1.657-.921-2.761-14.92-7.922-15.101-1.102-4.051-2.58-22.652 18.415-3.866 10.314-5.528-.553-1.472h1.657l1.289-5.892 1.475-.369-.182-1.473-2.028.185.554-1.658-1.477-.183-.368 1.473-.367 1.103-.735-1.103.551-2.212h-1.472l-.186 2.58.369 1.472-.552 2.58-1.289.368-.372-1.106-7.363 4.42-12.34 1.658 9.945-3.683 4.606-2.947-.921-1.474 1.286-.735.741-2.026 1.655-2.947-1.477-.737-.731 1.289-.923.738-.737-2.763.923-2.027 1.468-.369v-1.655l-1.654.736-1.656 1.105.369-1.841v-1.474l-1.476 1.104-.184 1.843-.185.92v3.683l.185 2.027-1.474.552-1.103-1.105-3.498 2.394-13.447 3.5-2.025-1.107-.184-2.393 2.948-2.21-.739-2.763-2.209.553-.736 1.657h-.921l.184-2.21 2.025-2.578-1.104-1.473.736-1.29-2.946-1.473-.367-1.474-1.841-.736-6.629.921-.369 4.605 1.841 6.813 4.05 2.026-1.104 2.025z" fill="#fff"/></svg>